<svg width="512" height="512" viewBox="0 0 512 512" xmlns="http://www.w3.org/2000/svg">
  <defs>
    <linearGradient id="chip" x1="0" y1="0" x2="1" y2="1">
      <stop offset="0" stop-color="#60a5fa"/>
      <stop offset="0.5" stop-color="#3b82f6"/>
      <stop offset="1" stop-color="#1e40af"/>
    </linearGradient>
  </defs>
  <rect width="512" height="512" rx="112" fill="#0f1115"/>
  <!-- chip legs -->
  <g fill="#3b82f6">
    <rect x="196" y="120" width="18" height="42" rx="6"/>
    <rect x="247" y="120" width="18" height="42" rx="6"/>
    <rect x="298" y="120" width="18" height="42" rx="6"/>
    <rect x="196" y="350" width="18" height="42" rx="6"/>
    <rect x="247" y="350" width="18" height="42" rx="6"/>
    <rect x="298" y="350" width="18" height="42" rx="6"/>
    <rect x="120" y="196" width="42" height="18" rx="6"/>
    <rect x="120" y="247" width="42" height="18" rx="6"/>
    <rect x="120" y="298" width="42" height="18" rx="6"/>
    <rect x="350" y="196" width="42" height="18" rx="6"/>
    <rect x="350" y="247" width="42" height="18" rx="6"/>
    <rect x="350" y="298" width="42" height="18" rx="6"/>
  </g>
  <!-- chip body -->
  <rect x="156" y="156" width="200" height="200" rx="40" fill="url(#chip)"/>
  <rect x="156" y="156" width="200" height="200" rx="40" fill="none" stroke="#ffffff" stroke-opacity="0.18" stroke-width="2"/>
  <!-- diamond mark -->
  <path d="M256 192 L320 256 L256 320 L192 256 Z" fill="none" stroke="#ffffff" stroke-width="16" stroke-linejoin="round"/>
  <circle cx="256" cy="256" r="22" fill="#ffffff"/>
</svg>
